<?xml version="1.0" encoding="utf-8"?>
<svg width="800px" height="800px" viewBox="0 0 32 32" id="clockfacenineoclock_Light"
	data-name="clockfacenineoclock/Light" xmlns="http://www.w3.org/2000/svg">

	<!-- White → transparent -->
	<path d="M0,0H10V2H6V4H4V6H2v4H0Z" fill="none" />
	<path d="M0,0H10V10H8V6H6V4H4V2H0Z" transform="translate(22)" fill="none" />
	<path d="M8,0h6V14H6v2h8V14h2V0h4V2h4V4h2V8h2V20H26v4H24v2H20v2H8V26H4V24H2V20H0V8H2V4H4V2H8Z"
		transform="translate(2 2)" fill="none" />
	<path d="M0,0H2V4H0Z" transform="translate(0 22)" fill="none" />
	<path d="M8,0h2V10H0V8H4V6H6V4H8Z" transform="translate(22 22)" fill="none" />

	<!-- 1A1A1A → white -->
	<path d="M0,0H12V2H8V16H6V2H0Z" transform="translate(10)" fill="#ffffff" />
	<path d="M0,0H4V2H0Z" transform="translate(6 2)" fill="#ffffff" />
	<path d="M0,0H4V2H0Z" transform="translate(22 2)" fill="#ffffff" />
	<path d="M0,0H2V2H0Z" transform="translate(4 4)" fill="#ffffff" />
	<path d="M0,0H2V2H0Z" transform="translate(26 4)" fill="#ffffff" />
	<path d="M0,0H2V4H0Z" transform="translate(2 6)" fill="#ffffff" />
	<path d="M0,0H2V4H0Z" transform="translate(28 6)" fill="#ffffff" />
	<path d="M0,0H2V12H0Z" transform="translate(0 10)" fill="#ffffff" />
	<path d="M0,0H2V12H0Z" transform="translate(30 10)" fill="#ffffff" />
	<path d="M0,0H8V2H0Z" transform="translate(8 16)" fill="#ffffff" />
	<path d="M0,0H2V4H0Z" transform="translate(2 22)" fill="#ffffff" />
	<path d="M0,0H2V4H0Z" transform="translate(28 22)" fill="#ffffff" />
	<path d="M0,0H2V2H0Z" transform="translate(4 26)" fill="#ffffff" />
	<path d="M0,0H2V2H0Z" transform="translate(26 26)" fill="#ffffff" />
	<path d="M0,0H4V2H0Z" transform="translate(6 28)" fill="#ffffff" />
	<path d="M0,0H4V2H0Z" transform="translate(22 28)" fill="#ffffff" />
	<path d="M0,0H12V2H0Z" transform="translate(10 30)" fill="#ffffff" />

</svg>